<?xml version="1.0" encoding="UTF-8"?>
<svg id="Layer_2" data-name="Layer 2" xmlns="http://www.w3.org/2000/svg" viewBox="0 0 418.57 169.54">
  <defs>
    <style>
      .cls-1 {
        fill: #fff;
      }

      .cls-2 {
        isolation: isolate;
      }
    </style>
  </defs>
  <g id="Layer_1-2" data-name="Layer 1">
    <g>
      <g id="GcijTB.tif">
        <path class="cls-1" d="m48.85,169.54h-.89c-.69-.23-1.4-.08-2.1-.17-5.23-.65-10.27-2-15.09-4.13-6.52-2.88-12.31-6.87-17.63-11.59-.77-.68-.71-1.16-.05-1.8.64-.62,1.28-1.25,1.84-1.94.51-.63,1.04-.66,1.76-.44,3.86,1.21,7.78,2.25,11.77,2.97,10.47,1.87,20.66,1.23,30.04-4.22,10.66-6.19,17.1-15.08,16.93-27.94-.18-13.99-12.22-25.8-25.65-25.41-6.38.19-11.74,2.63-15.96,7.3-4.69,5.18-6.3,11.47-5.37,18.33,1.02,7.58,4.83,13.3,11.84,16.67.7.33.85.72.58,1.4-.39.96-.78,1.93-1.12,2.91-.25.72-.6.96-1.41.76-1.83-.46-3.69-.85-5.55-1.17-9.07-1.58-17.74-4.31-25.82-8.82-.99-.55-1.47-1.16-1.45-2.34.07-3.2.01-6.39,0-9.59,0-2.56,0-2.53-2.6-2.49-.98.01-2,.33-2.93-.27C0,115.03,0,112.51,0,109.98c.04-.55.12-1.11.12-1.66.05-7.58.04-15.16.19-22.75.2-9.48.03-18.95.23-28.43.15-7.54.14-15.09.22-22.63.12-10.73.02-21.47.26-32.21.02-.78.06-1.55.31-2.3h1.56c1.18.26,2.37.11,3.56.12.73,0,1.25.23,1.74.78,2.08,2.28,4.19,4.53,6.31,6.77,4.85,5.13,9.71,10.26,14.56,15.39.48.51.95,1.01.94,1.82-.02,1.26.09,2.53.09,3.79.04,13.9.07,27.8.11,41.7,0,1.42.2,1.56,1.43.84,2.32-1.36,4.74-2.48,7.31-3.26,8.64-2.63,17.28-2.39,25.89.2,8.92,2.69,16.38,7.68,22.64,14.48,7,7.61,11.69,16.4,13.29,26.73.41,2.65.43,5.33.74,7.98v2.45c-.05.48-.11.96-.14,1.43-.51,7.12-2.19,13.93-5.5,20.27-5.12,9.79-12.73,17.12-22.49,22.17-7.21,3.73-14.83,6.05-23.08,5.74-.48-.02-.96.08-1.44.12Z"/>
      </g>
      <g id="text_content" data-name="text content">
        <g id="Better_AI" data-name="Better AI" class="cls-2">
          <g class="cls-2">
            <path class="cls-1" d="m174.71,130.64c0,11.17-8.61,16.14-23.5,16.14h-8.86c-3.31,0-5.71-1.9-5.79-5.13v-41.21c0-2.32-.17-6.79-1.41-10.1,2.9-1.41,7.28-2.32,14.32-2.32,14.15,0,22.43,3.89,22.43,13.9,0,6.87-3.81,12.08-10.51,13.9,8.03,1.16,13.32,6.21,13.32,14.81Zm-28.14-38.9v22.68h4.8c6.7.17,10.01-4.47,10.01-11.67s-3.15-11.09-11.92-11.09c-1.16,0-2.15,0-2.9.08Zm17.3,39.06c0-10.1-5.3-12.66-12.75-12.66h-4.55v24.99h4.39c9.1,0,12.91-4.8,12.91-12.33Z"/>
            <path class="cls-1" d="m217.67,139.75c-2.15,5.21-7.86,8.19-15.48,8.19-12.5,0-20.52-8.03-20.52-22.43s7.28-22.43,20.77-22.43c9.27,0,16.39,4.22,16.39,12.41s-7.28,12.58-18.12,12.58c-2.73,0-5.46,0-8.36-.33.83,10.43,5.54,13.99,12.58,13.99,6.04,0,10.26-2.73,12-6.62,1.16.5,1.99,1.66.74,4.63Zm-25.49-15.56c.99.08,2.07.17,3.15.17,5.88.08,12.91-1.16,12.91-10.43,0-5.79-3.06-7.28-6.21-7.28-6.12,0-9.85,6.37-9.85,17.54Z"/>
            <path class="cls-1" d="m248.7,104l-.08,2.4c-.08,1.66-1.16,2.48-2.57,2.48h-7.53v26.98c0,2.9,1.24,4.39,3.81,4.39,1.24,0,2.98-.33,3.39-1.24.83,1.08,1.16,2.32,1.16,3.23,0,3.23-3.31,5.38-8.44,5.38-6.21,0-9.68-4.14-9.68-10.92v-27.81h-1.24c-1.08,0-3.89.08-4.97.25l.08-2.4c.08-1.66,1.24-2.4,2.57-2.4h3.56v-5.96c0-3.23,2.4-5.13,5.63-5.13,2.9,0,4.8,1.41,5.54,2.15-.74,2.9-1.08,5.55-1.24,8.94h.91c.83,0,8.28-.16,9.1-.33Z"/>
            <path class="cls-1" d="m289.8,139.75c-2.15,5.21-7.86,8.19-15.48,8.19-12.5,0-20.52-8.03-20.52-22.43s7.28-22.43,20.77-22.43c9.27,0,16.39,4.22,16.39,12.41s-7.28,12.58-18.12,12.58c-2.73,0-5.46,0-8.36-.33.83,10.43,5.54,13.99,12.58,13.99,6.04,0,10.26-2.73,12-6.62,1.16.5,1.99,1.66.74,4.63Zm-25.49-15.56c.99.08,2.07.17,3.15.17,5.88.08,12.91-1.16,12.91-10.43,0-5.79-3.06-7.28-6.21-7.28-6.12,0-9.85,6.37-9.85,17.54Z"/>
            <path class="cls-1" d="m330.76,112.35c0,4.06-2.81,7.03-6.29,7.12-1.99,0-3.64-.58-4.47-1.49,1.24-2.15,1.49-3.48,1.49-5.63,0-2.98-1.24-4.55-3.81-4.55-4.14,0-7.12,6.04-7.12,19.36,0,11.34,0,14.32,1.66,18.29-.83.83-2.81,2.15-5.63,2.15-3.06,0-5.71-1.99-5.71-5.63v-27.15c0-3.14-.74-4.3-2.23-4.3-.58,0-1.66.17-2.15,1.08-.66-1.08-.99-2.07-.99-3.31,0-2.98,2.15-5.13,6.12-5.13,4.55,0,7.53,2.9,7.86,9.02,1.9-6.04,5.54-9.1,10.92-9.1,6.04,0,10.34,3.39,10.34,9.27Z"/>
            <path class="cls-1" d="m399.53,145.62c-.91,1.08-2.57,2.23-5.79,2.23s-5.46-1.32-6.04-3.89l-4.06-14.4h-19.28l-3.06,11.34c-.33,1.16-.58,2.32-.58,3.48,0,1.08.25,1.9.83,2.4-1.49.58-2.98,1.08-5.46,1.08-3.81,0-5.54-1.24-5.54-4.22,0-1.24.41-3.15.99-5.21l16.55-49.08c2.9-.91,5.63-1.41,8.36-1.41,2.4,0,4.72.75,5.46,3.31l15.14,49.49c.41,1.32,1.24,3.56,2.48,4.88Zm-17.38-21.52l-8.36-30.12-8.03,30.12h16.39Z"/>
            <path class="cls-1" d="m407.23,142.73l-.08-42.29c0-3.15-.25-6.79-1.41-10.1.83-.83,2.9-2.15,5.71-2.15,3.23,0,5.71,1.9,5.71,5.05v42.29c0,3.23.17,6.95,1.41,10.18-.83.83-2.9,2.23-5.71,2.23-3.23,0-5.63-1.99-5.63-5.21Z"/>
          </g>
        </g>
      </g>
    </g>
  </g>
</svg>